# xmcd
#
# Track frame offsets:
#	150
#	18285
#	34370
#	45785
#	62427
#	79565
#	96215
#	107815
#	122697
#	134102
#	150647
#	164615
#	178135
#	190225
#	204782
#	217940
#	233057
#
# Disc length: 3331 seconds
#
# Revision: 1
# Processed by: cddbd v1.5.2PL0 Copyright (c) Steve Scherf et al.
# Submitted via: audiograbber 1.83.01
#
DISCID=dc0d0111
DTITLE=Various Artist - CDX 57 May 1993
DYEAR=1993
DGENRE=Country
TTITLE0=Nanci Griffith - Across The Great Divide
TTITLE1=Charlie Daniels - All Night Long
TTITLE2=Alan Jackson - Chattahoochie
TTITLE3=Radney Foster - Easier Said Than Done
TTITLE4=Willie Nelson - Graceland
TTITLE5=Skip Ewing - Grandma's Garden
TTITLE6=Tracy Byrd - Holdin' Heaven
TTITLE7=Shenandoah - Janie Baker
TTITLE8=Smokin' Armadillos - My Girlfriend Might
TTITLE9=Ronna Reeves - Never Let Him See Me Cry
TTITLE10=John Brannen - Never Say Never Again
TTITLE11=Mark Collie - Shame Shame Shame Shame
TTITLE12=Clinton Gregory - Standing On The Edge Of Love
TTITLE13=Gibson - Miller Band - Texas Tattoo
TTITLE14=Dusty Martin - The Wrong Mr. Right Again
TTITLE15=Judd Erickson - Toys And Games
TTITLE16=Lisa Stewart - Under The Light Of The Texaco
EXTD=
EXTT0=
EXTT1=
EXTT2=
EXTT3=
EXTT4=
EXTT5=
EXTT6=
EXTT7=
EXTT8=
EXTT9=
EXTT10=
EXTT11=
EXTT12=
EXTT13=
EXTT14=
EXTT15=
EXTT16=
PLAYORDER=
